<svg version="1.1" xmlns="http://www.w3.org/2000/svg" style="display: block;" viewBox="0 0 2048 2048" preserveAspectRatio="none" width="100%" height="100%">
<path fill="#ededec" d="M 543.181 556.071 L 1015.01 977.392 C 1045.95 1005.93 1076.7 1034.67 1107.25 1063.61 C 1143.55 1099.11 1182.78 1133.33 1219.19 1168.82 C 1234.07 1183.34 1251.63 1198.92 1265.4 1214.11 C 1209.79 1214.94 1152.46 1214.24 1096.68 1214.32 L 751.699 903.871 C 716.217 872.101 679.977 838.055 644.055 807.163 C 642.844 820.322 643.327 837.116 643.34 850.636 L 643.387 919.494 L 643.357 1107.72 C 643.384 1142.42 644.256 1181.29 643.063 1215.52 C 610.928 1214.69 575.338 1215.28 543.03 1215.43 L 543.019 797.376 C 543.005 717.376 542.25 635.948 543.181 556.071 z"/>
<path fill="#515ead" d="M 824.268 639.329 C 890.535 638.128 958.989 639.088 1025.44 639.021 C 1099.38 710.653 1170.82 785.411 1244.51 857.358 C 1254.07 866.686 1263.97 876.318 1273.26 885.87 C 1236.18 926.249 1197.82 965.59 1160.56 1005.71 C 1145.96 1021.44 1119.26 1048.02 1107.25 1063.61 C 1076.7 1034.67 1045.95 1005.93 1015.01 977.392 C 1026.97 966.184 1040.58 951.589 1052.1 939.625 C 1067.28 923.851 1083.42 907.912 1098.34 892.008 C 1034.16 831.733 967.335 772.194 902.528 712.144 L 852.746 666.268 C 844.066 658.28 831.847 647.737 824.268 639.329 z"/>
<path fill="#515ead" d="M 1322.76 936.656 C 1326.85 939.459 1341.66 954.888 1345.97 959.265 L 1397.01 1011.35 C 1462.6 1077.79 1532.02 1146.4 1595.95 1213.93 C 1568.18 1214.99 1535.62 1214.18 1507.49 1214.17 L 1421.65 1214.15 L 1233.08 1024.03 L 1322.76 936.656 z"/>
<path fill="#515ead" d="M 1427.58 554.883 C 1483.97 555.55 1540.81 554.283 1597.29 555.074 C 1572.05 583.16 1539.93 614.027 1512.87 641.151 L 1371.34 782.789 C 1357.53 796.83 1343.56 810.708 1329.42 824.422 C 1300.98 797.902 1270.25 771.777 1242.72 744.435 C 1260.78 724.483 1283 703.137 1302.03 683.566 L 1427.58 554.883 z"/>
<path fill="#ededec" d="M 542.556 1320.95 L 560 1320.57 C 580.06 1340.97 599.614 1364.84 619.739 1385.45 C 628.057 1393.98 635.502 1403.22 644.512 1411.15 C 646.04 1385.7 644.867 1347.2 644.87 1320.99 C 652.003 1320.62 659.912 1320.87 667.125 1320.94 C 667.565 1334.74 669.196 1445.02 665.84 1450.19 C 660.652 1450.5 654.863 1450.48 649.621 1450.59 C 621.51 1419.86 593.217 1389.29 564.742 1358.9 C 563.886 1388.85 564.602 1419.97 564.246 1450.15 C 556.143 1450.7 550.497 1450.41 542.322 1450.01 C 541.541 1413.83 542.408 1377.44 542.069 1341.24 C 542.005 1334.45 542.012 1327.72 542.556 1320.95 z"/>
<path fill="#515ead" d="M 1047.89 1321.13 C 1058.12 1320.21 1073.13 1320.62 1083.74 1320.65 L 1145.96 1320.98 L 1145.96 1342.07 C 1125.52 1343.32 1104.76 1342.05 1083.39 1342.44 C 1062.14 1342.79 1036.41 1337.64 1036.1 1367.85 C 1035.48 1427.67 1031.83 1428.65 1089.04 1428.28 C 1107.29 1428.24 1127.77 1427.77 1145.82 1428.79 L 1146.02 1450.06 C 1128.84 1450.82 1107.57 1449.93 1091.6 1450.39 C 1044.37 1451.66 1011.19 1452.47 1014.03 1392.6 C 1015.53 1360.99 1007.34 1332.81 1047.89 1321.13 z"/>
<path fill="#ededec" d="M 774.307 1321.07 C 783.502 1320.6 793.352 1320.73 802.606 1320.68 C 814.626 1334.91 831.337 1355.59 844.018 1368.46 C 857.726 1353.17 871.369 1336.51 884.654 1320.75 L 913.27 1320.99 C 908.453 1327.64 898.812 1338.34 893.101 1345.06 C 881.698 1358.64 870.151 1372.11 858.464 1385.45 C 876.15 1407.07 896.159 1428.06 913.322 1449.89 C 903.533 1450.59 895.328 1450.51 885.564 1450.42 C 873.039 1437.5 856.474 1416.87 843.818 1402.75 C 829.632 1418.09 816.167 1434.74 802.065 1450.35 C 792.57 1450.34 783.075 1450.27 773.581 1450.14 C 791.447 1428.03 811.016 1407.07 829.094 1385.17 C 812.292 1365.16 789.715 1341.28 774.307 1321.07 z"/>
<path fill="#515ead" d="M 1475.32 1320.95 C 1512.74 1319.95 1556.36 1320.42 1593.86 1320.99 C 1594.1 1327.73 1593.94 1335.26 1593.93 1342.06 C 1561.91 1343.33 1530.06 1341.64 1497.94 1343.06 L 1497.66 1376.27 C 1517.14 1377.04 1541.8 1376.37 1561.68 1376.41 C 1569.47 1376.26 1577.25 1376.37 1585.03 1376.76 C 1585.22 1383.57 1585.03 1391.11 1585.01 1397.99 C 1556.36 1398.88 1526.79 1397.33 1497.97 1398.59 C 1498.01 1415.74 1497.82 1432.89 1497.42 1450.04 C 1490.05 1450.29 1482.6 1450.16 1475.21 1450.1 C 1474.46 1431.13 1475.07 1408.42 1475 1389.23 C 1474.93 1367.37 1474.45 1342.62 1475.32 1320.95 z"/>
<path fill="#515ead" d="M 1244.35 1320.99 C 1283.78 1319.88 1331.51 1320.19 1371.01 1321.02 C 1371.3 1327.95 1371.17 1335.11 1371.14 1342.07 C 1353.84 1342.81 1336.62 1342.28 1319.2 1343.1 C 1318.61 1360.73 1319.05 1380.71 1319.02 1398.52 L 1318.92 1449.89 C 1311.59 1450.26 1304.13 1450.15 1296.78 1450.13 C 1295.7 1415.44 1296.44 1377.99 1296.21 1342.95 C 1279.16 1342 1261.64 1342.99 1244.37 1342.47 C 1243.94 1334.59 1244.05 1328.91 1244.35 1320.99 z"/>
</svg>